<svg width="64" height="64" viewBox="0 0 64 64" fill="none" xmlns="http://www.w3.org/2000/svg">
<rect width="64" height="64" rx="32" fill="#AA00FF"/>
<path d="M30.536 26.848V28.032H25.688V31.792H29.624V32.976H25.688V38H24.232V26.848H30.536ZM37.8785 32.256C38.2838 32.32 38.6518 32.4853 38.9825 32.752C39.3238 33.0187 39.5905 33.3493 39.7825 33.744C39.9852 34.1387 40.0865 34.56 40.0865 35.008C40.0865 35.5733 39.9425 36.0853 39.6545 36.544C39.3665 36.992 38.9452 37.3493 38.3905 37.616C37.8465 37.872 37.2012 38 36.4545 38H32.2945V26.848H36.2945C37.0518 26.848 37.6972 26.976 38.2305 27.232C38.7638 27.4773 39.1638 27.8133 39.4305 28.24C39.6972 28.6667 39.8305 29.1467 39.8305 29.68C39.8305 30.3413 39.6492 30.8907 39.2865 31.328C38.9345 31.7547 38.4652 32.064 37.8785 32.256ZM33.7505 31.664H36.1985C36.8812 31.664 37.4092 31.504 37.7825 31.184C38.1558 30.864 38.3425 30.4213 38.3425 29.856C38.3425 29.2907 38.1558 28.848 37.7825 28.528C37.4092 28.208 36.8705 28.048 36.1665 28.048H33.7505V31.664ZM36.3265 36.8C37.0518 36.8 37.6172 36.6293 38.0225 36.288C38.4278 35.9467 38.6305 35.472 38.6305 34.864C38.6305 34.2453 38.4172 33.76 37.9905 33.408C37.5638 33.0453 36.9932 32.864 36.2785 32.864H33.7505V36.8H36.3265Z" fill="white"/>
</svg>
