<svg width="64" height="64" viewBox="0 0 64 64" fill="none" xmlns="http://www.w3.org/2000/svg">
<rect width="64" height="64" rx="32" fill="#AA00FF"/>
<path d="M26.188 26.848V38H24.732V26.848H26.188ZM37.1175 30.08C36.8082 29.4293 36.3602 28.928 35.7735 28.576C35.1868 28.2133 34.5042 28.032 33.7255 28.032C32.9468 28.032 32.2428 28.2133 31.6135 28.576C30.9948 28.928 30.5042 29.44 30.1415 30.112C29.7895 30.7733 29.6135 31.5413 29.6135 32.416C29.6135 33.2907 29.7895 34.0587 30.1415 34.72C30.5042 35.3813 30.9948 35.8933 31.6135 36.256C32.2428 36.608 32.9468 36.784 33.7255 36.784C34.8135 36.784 35.7095 36.4587 36.4135 35.808C37.1175 35.1573 37.5282 34.2773 37.6455 33.168H33.1975V31.984H39.1975V33.104C39.1122 34.0213 38.8242 34.864 38.3335 35.632C37.8428 36.3893 37.1975 36.992 36.3975 37.44C35.5975 37.8773 34.7068 38.096 33.7255 38.096C32.6908 38.096 31.7468 37.856 30.8935 37.376C30.0402 36.8853 29.3628 36.208 28.8615 35.344C28.3708 34.48 28.1255 33.504 28.1255 32.416C28.1255 31.328 28.3708 30.352 28.8615 29.488C29.3628 28.6133 30.0402 27.936 30.8935 27.456C31.7468 26.9653 32.6908 26.72 33.7255 26.72C34.9095 26.72 35.9548 27.0133 36.8615 27.6C37.7788 28.1867 38.4455 29.0133 38.8615 30.08H37.1175Z" fill="white"/>
</svg>
