<svg width="40" height="40" viewBox="0 0 40 40" fill="none" xmlns="http://www.w3.org/2000/svg">
<rect x="0.5" y="0.5" width="39" height="39" rx="19.5" stroke="white"/>
<path d="M18.5739 15.636V16.524H14.9379V19.344H17.8899V20.232H14.9379V24H13.8459V15.636H18.5739ZM20.9848 18.648C21.2088 18.256 21.5368 17.936 21.9688 17.688C22.4008 17.44 22.8928 17.316 23.4448 17.316C24.0368 17.316 24.5688 17.456 25.0408 17.736C25.5128 18.016 25.8848 18.412 26.1568 18.924C26.4288 19.428 26.5648 20.016 26.5648 20.688C26.5648 21.352 26.4288 21.944 26.1568 22.464C25.8848 22.984 25.5087 23.388 25.0287 23.676C24.5568 23.964 24.0288 24.108 23.4448 24.108C22.8768 24.108 22.3768 23.984 21.9448 23.736C21.5208 23.488 21.2008 23.172 20.9848 22.788V24H19.8928V15.12H20.9848V18.648ZM25.4488 20.688C25.4488 20.192 25.3488 19.76 25.1488 19.392C24.9488 19.024 24.6768 18.744 24.3328 18.552C23.9968 18.36 23.6248 18.264 23.2168 18.264C22.8168 18.264 22.4448 18.364 22.1008 18.564C21.7648 18.756 21.4928 19.04 21.2848 19.416C21.0848 19.784 20.9848 20.212 20.9848 20.7C20.9848 21.196 21.0848 21.632 21.2848 22.008C21.4928 22.376 21.7648 22.66 22.1008 22.86C22.4448 23.052 22.8168 23.148 23.2168 23.148C23.6248 23.148 23.9968 23.052 24.3328 22.86C24.6768 22.66 24.9488 22.376 25.1488 22.008C25.3488 21.632 25.4488 21.192 25.4488 20.688Z" fill="white"/>
</svg>
