<svg width="40" height="40" viewBox="0 0 40 40" fill="none" xmlns="http://www.w3.org/2000/svg">
<rect x="0.5" y="0.5" width="39" height="39" rx="19.5" stroke="white"/>
<path d="M16.4848 15.636V24H15.3928V15.636H16.4848ZM21.0579 17.316C21.6259 17.316 22.1219 17.44 22.5459 17.688C22.9779 17.936 23.2979 18.248 23.5059 18.624V17.424H24.6099V24.144C24.6099 24.744 24.4819 25.276 24.2259 25.74C23.9699 26.212 23.6019 26.58 23.1219 26.844C22.6499 27.108 22.0979 27.24 21.4659 27.24C20.6019 27.24 19.8819 27.036 19.3059 26.628C18.7299 26.22 18.3899 25.664 18.2859 24.96H19.3659C19.4859 25.36 19.7339 25.68 20.1099 25.92C20.4859 26.168 20.9379 26.292 21.4659 26.292C22.0659 26.292 22.5539 26.104 22.9299 25.728C23.3139 25.352 23.5059 24.824 23.5059 24.144V22.764C23.2899 23.148 22.9699 23.468 22.5459 23.724C22.1219 23.98 21.6259 24.108 21.0579 24.108C20.4739 24.108 19.9419 23.964 19.4619 23.676C18.9899 23.388 18.6179 22.984 18.3459 22.464C18.0739 21.944 17.9379 21.352 17.9379 20.688C17.9379 20.016 18.0739 19.428 18.3459 18.924C18.6179 18.412 18.9899 18.016 19.4619 17.736C19.9419 17.456 20.4739 17.316 21.0579 17.316ZM23.5059 20.7C23.5059 20.204 23.4059 19.772 23.2059 19.404C23.0059 19.036 22.7339 18.756 22.3899 18.564C22.0539 18.364 21.6819 18.264 21.2739 18.264C20.8659 18.264 20.4939 18.36 20.1579 18.552C19.8219 18.744 19.5539 19.024 19.3539 19.392C19.1539 19.76 19.0539 20.192 19.0539 20.688C19.0539 21.192 19.1539 21.632 19.3539 22.008C19.5539 22.376 19.8219 22.66 20.1579 22.86C20.4939 23.052 20.8659 23.148 21.2739 23.148C21.6819 23.148 22.0539 23.052 22.3899 22.86C22.7339 22.66 23.0059 22.376 23.2059 22.008C23.4059 21.632 23.5059 21.196 23.5059 20.7Z" fill="white"/>
</svg>
