<svg width="40" height="40" viewBox="0 0 40 40" fill="none" xmlns="http://www.w3.org/2000/svg">
<rect x="0.5" y="0.5" width="39" height="39" rx="19.5" stroke="white"/>
<path d="M17.9496 23.112H20.8776V24H16.8576V15.636H17.9496V23.112ZM22.6013 16.356C22.3933 16.356 22.2173 16.284 22.0733 16.14C21.9293 15.996 21.8573 15.82 21.8573 15.612C21.8573 15.404 21.9293 15.228 22.0733 15.084C22.2173 14.94 22.3933 14.868 22.6013 14.868C22.8013 14.868 22.9693 14.94 23.1053 15.084C23.2493 15.228 23.3213 15.404 23.3213 15.612C23.3213 15.82 23.2493 15.996 23.1053 16.14C22.9693 16.284 22.8013 16.356 22.6013 16.356ZM23.1293 17.424V24H22.0373V17.424H23.1293Z" fill="white"/>
</svg>
