<svg width="64" height="64" viewBox="0 0 64 64" fill="none" xmlns="http://www.w3.org/2000/svg">
<rect width="64" height="64" rx="32" fill="#051139"/>
<path d="M18.604 31.984C18.0067 31.7493 17.548 31.408 17.228 30.96C16.908 30.512 16.748 29.968 16.748 29.328C16.748 28.752 16.892 28.2347 17.18 27.776C17.468 27.3067 17.8947 26.9387 18.46 26.672C19.036 26.3947 19.7293 26.256 20.54 26.256C21.3507 26.256 22.0387 26.3947 22.604 26.672C23.18 26.9387 23.612 27.3067 23.9 27.776C24.1987 28.2347 24.348 28.752 24.348 29.328C24.348 29.9467 24.1827 30.4907 23.852 30.96C23.5213 31.4187 23.068 31.76 22.492 31.984C23.1533 32.1867 23.676 32.544 24.06 33.056C24.4547 33.5573 24.652 34.1653 24.652 34.88C24.652 35.5733 24.4813 36.1813 24.14 36.704C23.7987 37.216 23.3133 37.616 22.684 37.904C22.0653 38.1813 21.3507 38.32 20.54 38.32C19.7293 38.32 19.0147 38.1813 18.396 37.904C17.788 37.616 17.3133 37.216 16.972 36.704C16.6307 36.1813 16.46 35.5733 16.46 34.88C16.46 34.1653 16.652 33.552 17.036 33.04C17.42 32.528 17.9427 32.176 18.604 31.984ZM22.94 29.504C22.94 28.8533 22.7267 28.352 22.3 28C21.8733 27.648 21.2867 27.472 20.54 27.472C19.804 27.472 19.2227 27.648 18.796 28C18.3693 28.352 18.156 28.8587 18.156 29.52C18.156 30.1173 18.3747 30.5973 18.812 30.96C19.26 31.3227 19.836 31.504 20.54 31.504C21.2547 31.504 21.8307 31.3227 22.268 30.96C22.716 30.5867 22.94 30.1013 22.94 29.504ZM20.54 32.624C19.7507 32.624 19.1053 32.8107 18.604 33.184C18.1027 33.5467 17.852 34.096 17.852 34.832C17.852 35.5147 18.092 36.064 18.572 36.48C19.0627 36.896 19.7187 37.104 20.54 37.104C21.3613 37.104 22.012 36.896 22.492 36.48C22.972 36.064 23.212 35.5147 23.212 34.832C23.212 34.1173 22.9667 33.5733 22.476 33.2C21.9853 32.816 21.34 32.624 20.54 32.624ZM26.5858 32.096C26.5858 30.2613 26.8844 28.832 27.4818 27.808C28.0791 26.7733 29.1244 26.256 30.6178 26.256C32.1004 26.256 33.1404 26.7733 33.7378 27.808C34.3351 28.832 34.6337 30.2613 34.6337 32.096C34.6337 33.9627 34.3351 35.4133 33.7378 36.448C33.1404 37.4827 32.1004 38 30.6178 38C29.1244 38 28.0791 37.4827 27.4818 36.448C26.8844 35.4133 26.5858 33.9627 26.5858 32.096ZM33.1938 32.096C33.1938 31.168 33.1298 30.384 33.0018 29.744C32.8844 29.0933 32.6338 28.5707 32.2498 28.176C31.8764 27.7813 31.3324 27.584 30.6178 27.584C29.8924 27.584 29.3378 27.7813 28.9538 28.176C28.5804 28.5707 28.3298 29.0933 28.2018 29.744C28.0844 30.384 28.0258 31.168 28.0258 32.096C28.0258 33.056 28.0844 33.8613 28.2018 34.512C28.3298 35.1627 28.5804 35.6853 28.9538 36.08C29.3378 36.4747 29.8924 36.672 30.6178 36.672C31.3324 36.672 31.8764 36.4747 32.2498 36.08C32.6338 35.6853 32.8844 35.1627 33.0018 34.512C33.1298 33.8613 33.1938 33.056 33.1938 32.096ZM36.3126 29.04C36.3126 28.3147 36.5313 27.7387 36.9686 27.312C37.406 26.8747 37.966 26.656 38.6486 26.656C39.3313 26.656 39.8913 26.8747 40.3286 27.312C40.766 27.7387 40.9846 28.3147 40.9846 29.04C40.9846 29.776 40.766 30.3627 40.3286 30.8C39.8913 31.2267 39.3313 31.44 38.6486 31.44C37.966 31.44 37.406 31.2267 36.9686 30.8C36.5313 30.3627 36.3126 29.776 36.3126 29.04ZM45.6566 26.832L39.1766 38H37.7366L44.2166 26.832H45.6566ZM38.6486 27.552C38.286 27.552 37.998 27.68 37.7846 27.936C37.582 28.1813 37.4806 28.5493 37.4806 29.04C37.4806 29.5307 37.582 29.904 37.7846 30.16C37.998 30.416 38.286 30.544 38.6486 30.544C39.0113 30.544 39.2993 30.416 39.5126 30.16C39.726 29.8933 39.8326 29.52 39.8326 29.04C39.8326 28.5493 39.726 28.1813 39.5126 27.936C39.2993 27.68 39.0113 27.552 38.6486 27.552ZM42.4406 35.792C42.4406 35.056 42.6593 34.4747 43.0966 34.048C43.534 33.6107 44.094 33.392 44.7766 33.392C45.4593 33.392 46.014 33.6107 46.4406 34.048C46.878 34.4747 47.0966 35.056 47.0966 35.792C47.0966 36.5173 46.878 37.0987 46.4406 37.536C46.014 37.9733 45.4593 38.192 44.7766 38.192C44.094 38.192 43.534 37.9787 43.0966 37.552C42.6593 37.1147 42.4406 36.528 42.4406 35.792ZM44.7606 34.304C44.398 34.304 44.11 34.432 43.8966 34.688C43.6833 34.9333 43.5766 35.3013 43.5766 35.792C43.5766 36.272 43.6833 36.64 43.8966 36.896C44.11 37.1413 44.398 37.264 44.7606 37.264C45.1233 37.264 45.4113 37.1413 45.6246 36.896C45.838 36.64 45.9446 36.272 45.9446 35.792C45.9446 35.3013 45.838 34.9333 45.6246 34.688C45.4113 34.432 45.1233 34.304 44.7606 34.304Z" fill="white"/>
</svg>
