<svg width="64" height="64" viewBox="0 0 64 64" fill="none" xmlns="http://www.w3.org/2000/svg">
<rect width="64" height="64" rx="32" fill="#AA00FF"/>
<path d="M16.14 35.424V34.32L21.756 26.544H23.5V34.16H25.1V35.424H23.5V38H22.06V35.424H16.14ZM22.124 28.064L17.82 34.16H22.124V28.064ZM26.5545 32.096C26.5545 30.2613 26.8532 28.832 27.4505 27.808C28.0478 26.7733 29.0932 26.256 30.5865 26.256C32.0692 26.256 33.1092 26.7733 33.7065 27.808C34.3038 28.832 34.6025 30.2613 34.6025 32.096C34.6025 33.9627 34.3038 35.4133 33.7065 36.448C33.1092 37.4827 32.0692 38 30.5865 38C29.0932 38 28.0478 37.4827 27.4505 36.448C26.8532 35.4133 26.5545 33.9627 26.5545 32.096ZM33.1625 32.096C33.1625 31.168 33.0985 30.384 32.9705 29.744C32.8532 29.0933 32.6025 28.5707 32.2185 28.176C31.8452 27.7813 31.3012 27.584 30.5865 27.584C29.8612 27.584 29.3065 27.7813 28.9225 28.176C28.5492 28.5707 28.2985 29.0933 28.1705 29.744C28.0532 30.384 27.9945 31.168 27.9945 32.096C27.9945 33.056 28.0532 33.8613 28.1705 34.512C28.2985 35.1627 28.5492 35.6853 28.9225 36.08C29.3065 36.4747 29.8612 36.672 30.5865 36.672C31.3012 36.672 31.8452 36.4747 32.2185 36.08C32.6025 35.6853 32.8532 35.1627 32.9705 34.512C33.0985 33.8613 33.1625 33.056 33.1625 32.096ZM36.2814 29.04C36.2814 28.3147 36.5 27.7387 36.9374 27.312C37.3747 26.8747 37.9347 26.656 38.6174 26.656C39.3 26.656 39.86 26.8747 40.2974 27.312C40.7347 27.7387 40.9534 28.3147 40.9534 29.04C40.9534 29.776 40.7347 30.3627 40.2974 30.8C39.86 31.2267 39.3 31.44 38.6174 31.44C37.9347 31.44 37.3747 31.2267 36.9374 30.8C36.5 30.3627 36.2814 29.776 36.2814 29.04ZM45.6254 26.832L39.1454 38H37.7054L44.1854 26.832H45.6254ZM38.6174 27.552C38.2547 27.552 37.9667 27.68 37.7534 27.936C37.5507 28.1813 37.4494 28.5493 37.4494 29.04C37.4494 29.5307 37.5507 29.904 37.7534 30.16C37.9667 30.416 38.2547 30.544 38.6174 30.544C38.98 30.544 39.268 30.416 39.4814 30.16C39.6947 29.8933 39.8014 29.52 39.8014 29.04C39.8014 28.5493 39.6947 28.1813 39.4814 27.936C39.268 27.68 38.98 27.552 38.6174 27.552ZM42.4094 35.792C42.4094 35.056 42.628 34.4747 43.0654 34.048C43.5027 33.6107 44.0627 33.392 44.7454 33.392C45.428 33.392 45.9827 33.6107 46.4094 34.048C46.8467 34.4747 47.0654 35.056 47.0654 35.792C47.0654 36.5173 46.8467 37.0987 46.4094 37.536C45.9827 37.9733 45.428 38.192 44.7454 38.192C44.0627 38.192 43.5027 37.9787 43.0654 37.552C42.628 37.1147 42.4094 36.528 42.4094 35.792ZM44.7294 34.304C44.3667 34.304 44.0787 34.432 43.8654 34.688C43.652 34.9333 43.5454 35.3013 43.5454 35.792C43.5454 36.272 43.652 36.64 43.8654 36.896C44.0787 37.1413 44.3667 37.264 44.7294 37.264C45.092 37.264 45.38 37.1413 45.5934 36.896C45.8067 36.64 45.9134 36.272 45.9134 35.792C45.9134 35.3013 45.8067 34.9333 45.5934 34.688C45.38 34.432 45.092 34.304 44.7294 34.304Z" fill="white"/>
</svg>
