<svg width="64" height="64" viewBox="0 0 64 64" fill="none" xmlns="http://www.w3.org/2000/svg">
<rect width="64" height="64" rx="32" fill="#AA00FF"/>
<path d="M16.816 36.832C18.1707 35.744 19.232 34.8533 20 34.16C20.768 33.456 21.4133 32.7253 21.936 31.968C22.4693 31.2 22.736 30.448 22.736 29.712C22.736 29.0187 22.5653 28.4747 22.224 28.08C21.8933 27.6747 21.3547 27.472 20.608 27.472C19.8827 27.472 19.3173 27.7013 18.912 28.16C18.5173 28.608 18.304 29.2107 18.272 29.968H16.864C16.9067 28.7733 17.2693 27.8507 17.952 27.2C18.6347 26.5493 19.5147 26.224 20.592 26.224C21.6907 26.224 22.56 26.528 23.2 27.136C23.8507 27.744 24.176 28.5813 24.176 29.648C24.176 30.5333 23.9093 31.3973 23.376 32.24C22.8533 33.072 22.256 33.808 21.584 34.448C20.912 35.0773 20.0533 35.8133 19.008 36.656H24.512V37.872H16.816V36.832ZM26.1951 32.096C26.1951 30.2613 26.4938 28.832 27.0911 27.808C27.6885 26.7733 28.7338 26.256 30.2271 26.256C31.7098 26.256 32.7498 26.7733 33.3471 27.808C33.9445 28.832 34.2431 30.2613 34.2431 32.096C34.2431 33.9627 33.9445 35.4133 33.3471 36.448C32.7498 37.4827 31.7098 38 30.2271 38C28.7338 38 27.6885 37.4827 27.0911 36.448C26.4938 35.4133 26.1951 33.9627 26.1951 32.096ZM32.8031 32.096C32.8031 31.168 32.7391 30.384 32.6111 29.744C32.4938 29.0933 32.2431 28.5707 31.8591 28.176C31.4858 27.7813 30.9418 27.584 30.2271 27.584C29.5018 27.584 28.9471 27.7813 28.5631 28.176C28.1898 28.5707 27.9391 29.0933 27.8111 29.744C27.6938 30.384 27.6351 31.168 27.6351 32.096C27.6351 33.056 27.6938 33.8613 27.8111 34.512C27.9391 35.1627 28.1898 35.6853 28.5631 36.08C28.9471 36.4747 29.5018 36.672 30.2271 36.672C30.9418 36.672 31.4858 36.4747 31.8591 36.08C32.2431 35.6853 32.4938 35.1627 32.6111 34.512C32.7391 33.8613 32.8031 33.056 32.8031 32.096ZM35.922 29.04C35.922 28.3147 36.1407 27.7387 36.578 27.312C37.0153 26.8747 37.5753 26.656 38.258 26.656C38.9407 26.656 39.5007 26.8747 39.938 27.312C40.3753 27.7387 40.594 28.3147 40.594 29.04C40.594 29.776 40.3753 30.3627 39.938 30.8C39.5007 31.2267 38.9407 31.44 38.258 31.44C37.5753 31.44 37.0153 31.2267 36.578 30.8C36.1407 30.3627 35.922 29.776 35.922 29.04ZM45.266 26.832L38.786 38H37.346L43.826 26.832H45.266ZM38.258 27.552C37.8953 27.552 37.6073 27.68 37.394 27.936C37.1913 28.1813 37.09 28.5493 37.09 29.04C37.09 29.5307 37.1913 29.904 37.394 30.16C37.6073 30.416 37.8953 30.544 38.258 30.544C38.6207 30.544 38.9087 30.416 39.122 30.16C39.3353 29.8933 39.442 29.52 39.442 29.04C39.442 28.5493 39.3353 28.1813 39.122 27.936C38.9087 27.68 38.6207 27.552 38.258 27.552ZM42.05 35.792C42.05 35.056 42.2687 34.4747 42.706 34.048C43.1433 33.6107 43.7033 33.392 44.386 33.392C45.0687 33.392 45.6233 33.6107 46.05 34.048C46.4873 34.4747 46.706 35.056 46.706 35.792C46.706 36.5173 46.4873 37.0987 46.05 37.536C45.6233 37.9733 45.0687 38.192 44.386 38.192C43.7033 38.192 43.1433 37.9787 42.706 37.552C42.2687 37.1147 42.05 36.528 42.05 35.792ZM44.37 34.304C44.0073 34.304 43.7193 34.432 43.506 34.688C43.2927 34.9333 43.186 35.3013 43.186 35.792C43.186 36.272 43.2927 36.64 43.506 36.896C43.7193 37.1413 44.0073 37.264 44.37 37.264C44.7327 37.264 45.0207 37.1413 45.234 36.896C45.4473 36.64 45.554 36.272 45.554 35.792C45.554 35.3013 45.4473 34.9333 45.234 34.688C45.0207 34.432 44.7327 34.304 44.37 34.304Z" fill="white"/>
</svg>
