<svg width="64" height="64" viewBox="0 0 64 64" fill="none" xmlns="http://www.w3.org/2000/svg">
<rect width="64" height="64" rx="32" fill="#051139"/>
<path d="M13.608 27.76V26.432H16.616V38H15.144V27.76H13.608ZM19.117 32.096C19.117 30.2613 19.4157 28.832 20.013 27.808C20.6103 26.7733 21.6557 26.256 23.149 26.256C24.6317 26.256 25.6717 26.7733 26.269 27.808C26.8663 28.832 27.165 30.2613 27.165 32.096C27.165 33.9627 26.8663 35.4133 26.269 36.448C25.6717 37.4827 24.6317 38 23.149 38C21.6557 38 20.6103 37.4827 20.013 36.448C19.4157 35.4133 19.117 33.9627 19.117 32.096ZM25.725 32.096C25.725 31.168 25.661 30.384 25.533 29.744C25.4157 29.0933 25.165 28.5707 24.781 28.176C24.4077 27.7813 23.8637 27.584 23.149 27.584C22.4237 27.584 21.869 27.7813 21.485 28.176C21.1117 28.5707 20.861 29.0933 20.733 29.744C20.6157 30.384 20.557 31.168 20.557 32.096C20.557 33.056 20.6157 33.8613 20.733 34.512C20.861 35.1627 21.1117 35.6853 21.485 36.08C21.869 36.4747 22.4237 36.672 23.149 36.672C23.8637 36.672 24.4077 36.4747 24.781 36.08C25.165 35.6853 25.4157 35.1627 25.533 34.512C25.661 33.8613 25.725 33.056 25.725 32.096ZM29.1639 32.096C29.1639 30.2613 29.4625 28.832 30.0599 27.808C30.6572 26.7733 31.7025 26.256 33.1959 26.256C34.6785 26.256 35.7185 26.7733 36.3159 27.808C36.9132 28.832 37.2119 30.2613 37.2119 32.096C37.2119 33.9627 36.9132 35.4133 36.3159 36.448C35.7185 37.4827 34.6785 38 33.1959 38C31.7025 38 30.6572 37.4827 30.0599 36.448C29.4625 35.4133 29.1639 33.9627 29.1639 32.096ZM35.7719 32.096C35.7719 31.168 35.7079 30.384 35.5799 29.744C35.4625 29.0933 35.2119 28.5707 34.8279 28.176C34.4545 27.7813 33.9105 27.584 33.1959 27.584C32.4705 27.584 31.9159 27.7813 31.5319 28.176C31.1585 28.5707 30.9079 29.0933 30.7799 29.744C30.6625 30.384 30.6039 31.168 30.6039 32.096C30.6039 33.056 30.6625 33.8613 30.7799 34.512C30.9079 35.1627 31.1585 35.6853 31.5319 36.08C31.9159 36.4747 32.4705 36.672 33.1959 36.672C33.9105 36.672 34.4545 36.4747 34.8279 36.08C35.2119 35.6853 35.4625 35.1627 35.5799 34.512C35.7079 33.8613 35.7719 33.056 35.7719 32.096ZM38.8908 29.04C38.8908 28.3147 39.1094 27.7387 39.5468 27.312C39.9841 26.8747 40.5441 26.656 41.2268 26.656C41.9094 26.656 42.4694 26.8747 42.9068 27.312C43.3441 27.7387 43.5628 28.3147 43.5628 29.04C43.5628 29.776 43.3441 30.3627 42.9068 30.8C42.4694 31.2267 41.9094 31.44 41.2268 31.44C40.5441 31.44 39.9841 31.2267 39.5468 30.8C39.1094 30.3627 38.8908 29.776 38.8908 29.04ZM48.2348 26.832L41.7548 38H40.3148L46.7948 26.832H48.2348ZM41.2268 27.552C40.8641 27.552 40.5761 27.68 40.3628 27.936C40.1601 28.1813 40.0588 28.5493 40.0588 29.04C40.0588 29.5307 40.1601 29.904 40.3628 30.16C40.5761 30.416 40.8641 30.544 41.2268 30.544C41.5894 30.544 41.8774 30.416 42.0908 30.16C42.3041 29.8933 42.4108 29.52 42.4108 29.04C42.4108 28.5493 42.3041 28.1813 42.0908 27.936C41.8774 27.68 41.5894 27.552 41.2268 27.552ZM45.0188 35.792C45.0188 35.056 45.2374 34.4747 45.6748 34.048C46.1121 33.6107 46.6721 33.392 47.3548 33.392C48.0374 33.392 48.5921 33.6107 49.0188 34.048C49.4561 34.4747 49.6748 35.056 49.6748 35.792C49.6748 36.5173 49.4561 37.0987 49.0188 37.536C48.5921 37.9733 48.0374 38.192 47.3548 38.192C46.6721 38.192 46.1121 37.9787 45.6748 37.552C45.2374 37.1147 45.0188 36.528 45.0188 35.792ZM47.3388 34.304C46.9761 34.304 46.6881 34.432 46.4748 34.688C46.2614 34.9333 46.1548 35.3013 46.1548 35.792C46.1548 36.272 46.2614 36.64 46.4748 36.896C46.6881 37.1413 46.9761 37.264 47.3388 37.264C47.7014 37.264 47.9894 37.1413 48.2028 36.896C48.4161 36.64 48.5228 36.272 48.5228 35.792C48.5228 35.3013 48.4161 34.9333 48.2028 34.688C47.9894 34.432 47.7014 34.304 47.3388 34.304Z" fill="white"/>
</svg>
