<svg width="64" height="64" viewBox="0 0 64 64" fill="none" xmlns="http://www.w3.org/2000/svg">
<rect width="64" height="64" rx="32" fill="#AA00FF"/>
<path d="M22.94 29.184C22.7053 28 21.9747 27.408 20.748 27.408C19.7987 27.408 19.0893 27.776 18.62 28.512C18.1507 29.2373 17.9213 30.4373 17.932 32.112C18.1773 31.5573 18.5827 31.1253 19.148 30.816C19.724 30.496 20.364 30.336 21.068 30.336C22.1667 30.336 23.0413 30.6773 23.692 31.36C24.3533 32.0427 24.684 32.9867 24.684 34.192C24.684 34.9173 24.54 35.568 24.252 36.144C23.9747 36.72 23.548 37.1787 22.972 37.52C22.4067 37.8613 21.7187 38.032 20.908 38.032C19.8093 38.032 18.9507 37.7867 18.332 37.296C17.7133 36.8053 17.2813 36.128 17.036 35.264C16.7907 34.4 16.668 33.3333 16.668 32.064C16.668 28.1493 18.0333 26.192 20.764 26.192C21.8093 26.192 22.6307 26.4747 23.228 27.04C23.8253 27.6053 24.1773 28.32 24.284 29.184H22.94ZM20.764 31.568C20.3053 31.568 19.8733 31.664 19.468 31.856C19.0627 32.0373 18.732 32.32 18.476 32.704C18.2307 33.0773 18.108 33.536 18.108 34.08C18.108 34.8907 18.3427 35.552 18.812 36.064C19.2813 36.5653 19.9533 36.816 20.828 36.816C21.5747 36.816 22.1667 36.5867 22.604 36.128C23.052 35.6587 23.276 35.0293 23.276 34.24C23.276 33.408 23.0627 32.7573 22.636 32.288C22.2093 31.808 21.5853 31.568 20.764 31.568ZM26.6483 32.096C26.6483 30.2613 26.9469 28.832 27.5443 27.808C28.1416 26.7733 29.1869 26.256 30.6803 26.256C32.1629 26.256 33.2029 26.7733 33.8003 27.808C34.3976 28.832 34.6962 30.2613 34.6962 32.096C34.6962 33.9627 34.3976 35.4133 33.8003 36.448C33.2029 37.4827 32.1629 38 30.6803 38C29.1869 38 28.1416 37.4827 27.5443 36.448C26.9469 35.4133 26.6483 33.9627 26.6483 32.096ZM33.2563 32.096C33.2563 31.168 33.1923 30.384 33.0643 29.744C32.9469 29.0933 32.6963 28.5707 32.3123 28.176C31.9389 27.7813 31.3949 27.584 30.6803 27.584C29.9549 27.584 29.4003 27.7813 29.0163 28.176C28.6429 28.5707 28.3923 29.0933 28.2643 29.744C28.1469 30.384 28.0883 31.168 28.0883 32.096C28.0883 33.056 28.1469 33.8613 28.2643 34.512C28.3923 35.1627 28.6429 35.6853 29.0163 36.08C29.4003 36.4747 29.9549 36.672 30.6803 36.672C31.3949 36.672 31.9389 36.4747 32.3123 36.08C32.6963 35.6853 32.9469 35.1627 33.0643 34.512C33.1923 33.8613 33.2563 33.056 33.2563 32.096ZM36.3751 29.04C36.3751 28.3147 36.5938 27.7387 37.0311 27.312C37.4685 26.8747 38.0285 26.656 38.7111 26.656C39.3938 26.656 39.9538 26.8747 40.3911 27.312C40.8285 27.7387 41.0471 28.3147 41.0471 29.04C41.0471 29.776 40.8285 30.3627 40.3911 30.8C39.9538 31.2267 39.3938 31.44 38.7111 31.44C38.0285 31.44 37.4685 31.2267 37.0311 30.8C36.5938 30.3627 36.3751 29.776 36.3751 29.04ZM45.7191 26.832L39.2391 38H37.7991L44.2791 26.832H45.7191ZM38.7111 27.552C38.3485 27.552 38.0605 27.68 37.8471 27.936C37.6445 28.1813 37.5431 28.5493 37.5431 29.04C37.5431 29.5307 37.6445 29.904 37.8471 30.16C38.0605 30.416 38.3485 30.544 38.7111 30.544C39.0738 30.544 39.3618 30.416 39.5751 30.16C39.7885 29.8933 39.8951 29.52 39.8951 29.04C39.8951 28.5493 39.7885 28.1813 39.5751 27.936C39.3618 27.68 39.0738 27.552 38.7111 27.552ZM42.5031 35.792C42.5031 35.056 42.7218 34.4747 43.1591 34.048C43.5965 33.6107 44.1565 33.392 44.8391 33.392C45.5218 33.392 46.0765 33.6107 46.5031 34.048C46.9405 34.4747 47.1591 35.056 47.1591 35.792C47.1591 36.5173 46.9405 37.0987 46.5031 37.536C46.0765 37.9733 45.5218 38.192 44.8391 38.192C44.1565 38.192 43.5965 37.9787 43.1591 37.552C42.7218 37.1147 42.5031 36.528 42.5031 35.792ZM44.8231 34.304C44.4605 34.304 44.1725 34.432 43.9591 34.688C43.7458 34.9333 43.6391 35.3013 43.6391 35.792C43.6391 36.272 43.7458 36.64 43.9591 36.896C44.1725 37.1413 44.4605 37.264 44.8231 37.264C45.1858 37.264 45.4738 37.1413 45.6871 36.896C45.9005 36.64 46.0071 36.272 46.0071 35.792C46.0071 35.3013 45.9005 34.9333 45.6871 34.688C45.4738 34.432 45.1858 34.304 44.8231 34.304Z" fill="white"/>
</svg>
