<svg width="40" height="40" viewBox="0 0 40 40" fill="none" xmlns="http://www.w3.org/2000/svg">
<rect x="0.5" y="0.5" width="39" height="39" rx="19.5" stroke="white"/>
<path d="M21.0905 15.636L18.3665 20.844V24H17.2745V20.844L14.5385 15.636H15.7505L17.8145 19.872L19.8785 15.636H21.0905ZM23.5744 18.324V22.2C23.5744 22.52 23.6424 22.748 23.7784 22.884C23.9144 23.012 24.1504 23.076 24.4864 23.076H25.2904V24H24.3064C23.6984 24 23.2424 23.86 22.9384 23.58C22.6344 23.3 22.4824 22.84 22.4824 22.2V18.324H21.6304V17.424H22.4824V15.768H23.5744V17.424H25.2904V18.324H23.5744Z" fill="white"/>
</svg>
